# xmcd
#
# Track frame offsets:
#	150
#	19270
#	31967
#	44146
#	61743
#	73143
#	83004
#	99260
#	114634
#	126069
#	134847
#	144447
#	156640
#	167777
#
# Disc length: 2384 seconds
#
# Revision: 0
# Processed by: cddbd v1.5.2PL0 Copyright (c) Steve Scherf et al.
# Submitted via: EasyCDDAExtractor 16.0.6.1
#
DISCID=cb094e0e
DTITLE=Various Artist - Royal Olympic Cruises - Aegean Memories 
DYEAR=1996
DGENRE=Greece
TTITLE0=The Bouzouki Ensemble - Zorba's Dance
TTITLE1=Trio Hellenique - Soma Me Soma
TTITLE2=The Bouzouki Ensemble - To Yelasto Pedi
TTITLE3=Trio Hellenique - Ella, Ella
TTITLE4=Trio Hellenique - Sirtaki
TTITLE5=The Bouzouki Ensemble - Opa Opa Ta Bouzouki
TTITLE6=Trio Hellenique - Boris Boris
TTITLE7=The Bouzouki Ensemble - Never On Sunday
TTITLE8=Trio Hellenique - Diridachta
TTITLE9=Souveniers From Greece - Hasaposerviko
TTITLE10=The Bouzouki Ensemble - Lefteris
TTITLE11=Trio Hellenique - Peripteras
TTITLE12=The Bouzouki Ensemble - Triki Triki
TTITLE13=Souveniers From Greece - Who Pays The Ferryman
EXTD=
EXTT0=
EXTT1=
EXTT2=
EXTT3=
EXTT4=
EXTT5=
EXTT6=
EXTT7=
EXTT8=
EXTT9=
EXTT10=
EXTT11=
EXTT12=
EXTT13=
PLAYORDER=
